
<svg width="1404px" height="851px" viewBox="0 0 1404 851" version="1.1" xmlns="http://www.w3.org/2000/svg" xmlns:xlink="http://www.w3.org/1999/xlink">
    <g id="Page-1" stroke="none" stroke-width="1" fill="none" fill-rule="evenodd">
        <path d="M109.301676,611.874453 C81.3016755,428.874453 -150.698324,282.374453 160.801676,217.374453 C472.301676,152.374453 524.304568,-58.1436614 636.801676,15.3744532 C749.298783,88.8925678 800.338585,311.722238 1039.07013,311.722238 C1198.22449,311.722238 1308.80168,375.772976 1370.80168,503.874453 C1452.80168,715.874453 1381.46834,796.374453 1156.80168,745.374453 C819.801676,668.874453 904.301676,990.374453 584.301676,774.874453 C264.301676,559.374453 137.301676,794.874453 109.301676,611.874453 Z" id="Path" fill="#DC3F57" fill-rule="nonzero"></path>
    </g>
</svg>



<svg width="1373px" height="860px" viewBox="0 0 1373 860" version="1.1" xmlns="http://www.w3.org/2000/svg" xmlns:xlink="http://www.w3.org/1999/xlink">
    <g id="Page-1" stroke="none" stroke-width="1" fill="none" fill-rule="evenodd">
        <path d="M145.801676,472 C117.801676,289 -165.698324,219.374453 145.801676,154.374453 C457.301676,89.3744532 517.502893,-52.5181146 630,21 C742.497107,94.5181146 750.268455,285 989,285 C1227.73155,285 1322.01251,289.815654 1350,379.5 C1377.98749,469.184346 1438.5,722 1101.5,645.5 C764.5,569 866.5,1016 546.5,800.5 C226.5,585 173.801676,655 145.801676,472 Z" id="Path" fill="#DC3F57" fill-rule="nonzero"></path>
    </g>
</svg>


<svg width="1249px" height="1002px" viewBox="0 0 1249 1002" version="1.1" xmlns="http://www.w3.org/2000/svg" xmlns:xlink="http://www.w3.org/1999/xlink">
    <g id="Page-1" stroke="none" stroke-width="1" fill="none" fill-rule="evenodd">
        <path d="M74.3016755,488.874453 C-109,275 91.5,188.722238 221.5,188.722238 C351.5,188.722238 494.248313,-59.0181146 606.74542,14.5 C719.242528,88.0181146 621.14026,101.444476 1004.07013,188.722238 C1259.35671,246.907413 1314.66667,324.166667 1170,420.5 C1026.33333,559.833333 838.581807,569.666667 606.74542,450 C258.990841,270.5 837.5,1184 517.5,968.5 C197.5,753 257.603351,702.748906 74.3016755,488.874453 Z" id="Path-Copy-2" fill="#DC3F57" fill-rule="nonzero"></path>
    </g>
</svg>



<svg width="1236px" height="841px" viewBox="0 0 1236 841" version="1.1" xmlns="http://www.w3.org/2000/svg" xmlns:xlink="http://www.w3.org/1999/xlink">
    <g id="Page-1" stroke="none" stroke-width="1" fill="none" fill-rule="evenodd">
        <path d="M73.7228316,417.009272 C-109.578844,203.134819 90.921156,116.857057 220.921156,116.857057 C350.921156,116.857057 461.502893,-55.0181146 574,18.5 C686.497107,92.0181146 553.07013,97.722238 936,185 C1191.28658,243.185175 1283.61991,320.521599 1213,417.009272 C1040.28077,510.759637 838.002963,497.801486 606.166577,378.134819 C258.411997,198.634819 814,1019.5 494,804 C174,588.5 257.024507,630.883725 73.7228316,417.009272 Z" id="Path-Copy-3" fill="#DC3F57" fill-rule="nonzero"></path>
    </g>
</svg>



<svg width="1298px" height="1255px" viewBox="0 0 1298 1255" version="1.1" xmlns="http://www.w3.org/2000/svg" xmlns:xlink="http://www.w3.org/1999/xlink">
    <g id="Page-1" stroke="none" stroke-width="1" fill="none" fill-rule="evenodd">
        <path d="M269,623 C-76,439.5 -29.5,169 84.5,95 C198.5,21 331.5,-74 448,95 C564.5,264 467.5,290.5 910,380 C1205,439.666667 1331.5,581.833333 1289.5,806.5 C1262.82723,909.166667 1183.16056,1006.5 1050.5,1098.5 C851.509159,1236.5 718,1350.5 471,1130.5 C224,910.5 614,806.5 269,623 Z" id="Path-Copy-4" fill="#DC3F57" fill-rule="nonzero"></path>
    </g>
</svg>




<svg width="1292px" height="1149px" viewBox="0 0 1292 1149" version="1.1" xmlns="http://www.w3.org/2000/svg" xmlns:xlink="http://www.w3.org/1999/xlink">
    <g id="Page-1" stroke="none" stroke-width="1" fill="none" fill-rule="evenodd">
        <path d="M278,511 C-67,327.5 -35.0854331,133.378222 78.9145669,59.3782217 C192.914567,-14.6217783 295,-44.5 411.5,124.5 C528,293.5 393.829134,212.256443 904.414567,344.378222 C1244.80486,432.459407 1360.65123,565.666667 1251.95369,744 C1208.97846,821 1121.16056,905.5 988.5,997.5 C789.509159,1135.5 621,1243 374,1023 C127,803 623,694.5 278,511 Z" id="Path-Copy-5" fill="#DC3F57" fill-rule="nonzero"></path>
    </g>
</svg>


<svg width="972px" height="606px" viewBox="0 0 972 606" version="1.1" xmlns="http://www.w3.org/2000/svg" xmlns:xlink="http://www.w3.org/1999/xlink">
    <g id="Page-1" stroke="none" stroke-width="1" fill="none" fill-rule="evenodd">
        <path d="M644,349.378222 C620.5,125.378222 26.9145669,150 26.9145669,64.3782217 C26.9145669,-21.2435566 223.298066,-21.2435566 447.899033,64.3782217 C672.5,150 766.5,243.5 870.5,331 C939.833333,389.333333 973.5,447 971.5,504 C973.5,541 886,573.5 709,601.5 C443.5,643.5 -37.5,299.5 2.5,258 C42.5,216.5 667.5,573.378222 644,349.378222 Z" id="Path-Copy-4" fill="#DC3F57" fill-rule="nonzero"></path>
    </g>
</svg>